<?xml version="1.0" standalone="no"?>
<!DOCTYPE svg PUBLIC "-//W3C//DTD SVG 1.1//EN" "http://www.w3.org/Graphics/SVG/1.1/DTD/svg11.dtd" >
<svg xmlns="http://www.w3.org/2000/svg">
<metadata></metadata>
<defs>
<font id="webfontregular" horiz-adv-x="2051" >
<font-face units-per-em="2048" ascent="1638" descent="-410" />
<missing-glyph horiz-adv-x="2048" />
<glyph horiz-adv-x="0" />
<glyph horiz-adv-x="682" />
<glyph horiz-adv-x="0" />
<glyph horiz-adv-x="0" />
<glyph horiz-adv-x="0" />
<glyph unicode="&#x9;" horiz-adv-x="2048" />
<glyph unicode=" "  horiz-adv-x="2048" />
<glyph unicode="&#x09;" horiz-adv-x="2048" />
<glyph unicode="&#xa0;" horiz-adv-x="2048" />
<glyph unicode="&#xd;" horiz-adv-x="2048" />
<glyph unicode="!" d="M111 1019q0 381 270 650q271 271 651 271q381 0 651 -270q271 -271 271 -651q0 -381 -270 -651q-271 -271 -652 -271t-651 270q-270 268 -270 652zM213 1019q0 -339 240 -579q241 -241 579 -241q339 0 579 240q241 242 241 580q0 270 -160 485l-660 -485v819 q-339 0 -579 -240t-240 -579z" />
<glyph unicode="#" d="M111 1019q0 380 270 650q271 271 651 271q381 0 651 -270q271 -271 271 -651q0 -381 -270 -651q-271 -271 -652 -271t-651 270t-270 652zM213 1019q0 -339 240 -579q241 -241 579 -241q202 0 373 90q173 91 287 244l-660 486v819q-339 0 -579 -240t-240 -579z" />
<glyph unicode="$" d="M111 1019q0 381 270 650q271 271 651 271q381 0 651 -270q271 -271 271 -651q0 -381 -270 -651q-271 -271 -652 -271t-651 270q-270 268 -270 652zM213 1019q0 -339 240 -579q241 -241 579 -241q125 0 253 41l-253 779v819q-339 0 -579 -240t-240 -579z" />
<glyph unicode="%" d="M111 1019q0 381 270 650q271 271 651 271q381 0 651 -270q271 -271 271 -651q0 -381 -270 -651q-271 -271 -652 -271t-651 270q-270 268 -270 652zM213 1019q0 -277 162 -490q163 -217 409 -291l248 781v819q-339 0 -579 -240t-240 -579z" />
<glyph unicode="&#x26;" d="M111 1019q0 381 270 650q271 271 651 271q381 0 651 -270q271 -271 271 -651q0 -381 -270 -651q-271 -271 -652 -271t-651 270q-270 268 -270 652zM213 1018l819 1v819q-339 0 -579 -240t-240 -580z" />
<glyph unicode="(" d="M111 1019q0 381 270 650q271 271 651 271q381 0 651 -270q271 -271 271 -651q0 -381 -270 -651q-271 -271 -652 -271t-651 270q-270 268 -270 652zM778 1796l254 -777v819q-131 0 -254 -42z" />
<glyph unicode="*" d="M111 1019q0 381 270 650q271 271 651 271q381 0 651 -270q271 -271 271 -651q0 -381 -270 -651q-271 -271 -652 -271t-651 270q-270 268 -270 652zM373 1504l659 -485v819q-202 0 -373 -90q-172 -91 -286 -244z" />
<glyph unicode="0" d="M111 1019q0 381 270 650q271 271 651 271q381 0 651 -270q271 -271 271 -651q0 -381 -270 -651q-271 -271 -652 -271t-651 270q-270 268 -270 652z" />
<glyph unicode="1" d="M111 1019q0 381 270 650q271 271 651 271q381 0 651 -270q271 -271 271 -651q0 -381 -270 -651q-271 -271 -652 -271t-651 270q-270 268 -270 652zM213 1019q0 -339 240 -579q241 -241 579 -241q339 0 579 240q241 242 241 580q0 198 -90 372q-92 173 -244 287l-486 -659 v819q-339 0 -579 -240t-240 -579z" />
<glyph unicode="2" d="M111 1019q0 381 270 650q271 271 651 271q381 0 651 -270q271 -271 271 -651q0 -381 -270 -651q-271 -271 -652 -271t-651 270q-270 268 -270 652zM213 1019q0 -339 240 -579q241 -241 579 -241q339 0 579 240q241 242 241 580q0 115 -39 248l-781 -248v819 q-339 0 -579 -240t-240 -579z" />
<glyph unicode="3" d="M111 1019q0 381 270 650q271 271 651 271q381 0 651 -270q271 -271 271 -651q0 -381 -270 -651q-271 -271 -652 -271t-651 270q-270 268 -270 652zM213 1019q0 -339 240 -579q241 -241 579 -241q269 0 482 158q209 156 296 404l-778 258v819q-339 0 -579 -240t-240 -579z " />
<glyph unicode="4" d="M111 1019q0 381 270 650q271 271 651 271q381 0 651 -270q271 -271 271 -651q0 -381 -270 -651q-271 -271 -652 -271t-651 270q-270 268 -270 652zM213 1019q0 -339 240 -579q241 -241 579 -241q263 0 482 157l-482 663v819q-339 0 -579 -240t-240 -579z" />
<glyph unicode="5" d="M111 1019q0 380 270 650q271 271 651 271q381 0 651 -270q271 -271 271 -651q0 -381 -270 -651q-271 -271 -652 -271t-651 270t-270 652zM213 1018q0 -339 240 -579t579 -240v820v819q-339 0 -579 -240t-240 -580z" />
<glyph unicode="6" d="M111 1019q0 381 270 650q271 271 651 271q381 0 651 -270q271 -271 271 -651q0 -381 -270 -651q-271 -271 -652 -271t-651 270q-270 268 -270 652zM213 1019q0 -202 89 -373t245 -287l485 660v819q-339 0 -579 -240t-240 -579z" />
<glyph unicode="7" d="M111 1019q0 381 270 650q271 271 651 271q381 0 651 -270q271 -271 271 -651q0 -381 -270 -651q-271 -271 -652 -271t-651 270q-270 268 -270 652zM213 1019q0 -138 42 -258l777 258v819q-339 0 -579 -240t-240 -579z" />
<glyph unicode="8" d="M111 1019q0 381 270 650q271 271 651 271q381 0 651 -270q271 -271 271 -651q0 -381 -270 -651q-271 -271 -652 -271t-651 270q-270 268 -270 652zM251 1267l781 -248v819q-276 0 -489 -162q-216 -163 -292 -409z" />
<glyph unicode="9" d="M111 1019q0 381 270 650q271 271 651 271q381 0 651 -270q271 -271 271 -651q0 -381 -270 -651q-271 -271 -652 -271t-651 270q-270 268 -270 652zM551 1681l481 -662v819q-267 0 -481 -157z" />
<glyph unicode="@" d="M111 1019q0 380 270 650q271 271 651 271q381 0 651 -270q271 -271 271 -651q0 -381 -270 -651q-271 -271 -652 -271t-651 270t-270 652zM213 1018q0 -339 240 -579t579 -240t579 240q241 241 241 579l-820 1v819q-339 0 -579 -240t-240 -580z" />
<glyph unicode="A" d="M111 1019q0 381 270 650q271 271 651 271q381 0 651 -270q271 -271 271 -651q0 -381 -270 -651q-271 -271 -652 -271t-651 270q-270 268 -270 652zM213 1018q0 -339 240 -579t579 -240t579 240q241 242 241 579q0 336 -241 579q-241 241 -579 241q-339 0 -579 -240 t-240 -580z" />
<glyph unicode="B" d="M111 1019q0 381 270 650q271 271 651 271q381 0 651 -270q271 -271 271 -651q0 -381 -270 -651q-271 -271 -652 -271t-651 270q-270 268 -270 652zM213 1019q0 -339 240 -579q241 -241 579 -241q339 0 579 240q241 242 241 580q0 269 -159 481q-156 212 -403 297 l-258 -778v819q-339 0 -579 -240t-240 -579z" />
<glyph unicode="C" d="M111 1019q0 381 270 650q271 271 651 271q381 0 651 -270q271 -271 271 -651q0 -381 -270 -651q-271 -271 -652 -271t-651 270q-270 268 -270 652zM213 1019q0 -339 240 -579q241 -241 579 -241q339 0 579 240q241 242 241 580q0 198 -90 372q-92 173 -244 287l-486 -659 v819q-339 0 -579 -240t-240 -579z" />
<glyph unicode="D" d="M111 1019q0 380 270 650q271 271 651 271q381 0 651 -270q271 -271 271 -651q0 -381 -270 -651q-271 -271 -652 -271t-651 270t-270 652zM213 1019q0 -339 240 -579q241 -241 579 -241q339 0 579 240q241 241 241 580q0 270 -160 485l-660 -485v819q-339 0 -579 -240 t-240 -579z" />
<glyph unicode="E" d="M111 1019q0 381 270 650q271 271 651 271q381 0 651 -270q271 -271 271 -651q0 -381 -270 -651q-271 -271 -652 -271t-651 270q-270 268 -270 652zM213 1019q0 -339 240 -579q241 -241 579 -241q339 0 579 240q241 242 241 580q0 115 -39 248l-781 -248v819 q-339 0 -579 -240t-240 -579z" />
<glyph unicode="F" d="M111 1019q0 381 270 650q271 271 651 271q381 0 651 -270q271 -271 271 -651q0 -381 -270 -651q-271 -271 -652 -271t-651 270q-270 268 -270 652zM213 1018q0 -339 240 -579t579 -240t579 240q241 242 241 579l-820 1v819q-339 0 -579 -240t-240 -580z" />
<glyph unicode="G" d="M111 1019q0 381 270 650q271 271 651 271q381 0 651 -270q271 -271 271 -651q0 -381 -270 -651q-271 -271 -652 -271t-651 270q-270 268 -270 652zM213 1019q0 -339 240 -579q241 -241 579 -241q269 0 482 158q209 156 296 404l-778 258v819q-339 0 -579 -240t-240 -579z " />
<glyph unicode="H" d="M111 1019q0 381 270 650q271 271 651 271q381 0 651 -270q271 -271 271 -651q0 -381 -270 -651q-271 -271 -652 -271t-651 270q-270 268 -270 652zM213 1019q0 -339 240 -579q241 -241 579 -241q202 0 373 90q173 91 287 244l-660 486v819q-339 0 -579 -240t-240 -579z " />
<glyph unicode="I" d="M111 1019q0 381 270 650q271 271 651 271q381 0 651 -270q271 -271 271 -651q0 -381 -270 -651q-271 -271 -652 -271t-651 270q-270 268 -270 652zM213 1019q0 -339 240 -579q241 -241 579 -241q263 0 482 157l-482 663v819q-339 0 -579 -240t-240 -579z" />
<glyph unicode="J" d="M111 1019q0 381 270 650q271 271 651 271q381 0 651 -270q271 -271 271 -651q0 -381 -270 -651q-271 -271 -652 -271t-651 270q-270 268 -270 652zM213 1019q0 -339 240 -579q241 -241 579 -241q125 0 253 41l-253 779v819q-339 0 -579 -240t-240 -579z" />
<glyph unicode="K" d="M111 1019q0 381 270 650q271 271 651 271q381 0 651 -270q271 -271 271 -651q0 -381 -270 -651q-271 -271 -652 -271t-651 270q-270 268 -270 652zM213 1018q0 -339 240 -579t579 -240v820v819q-339 0 -579 -240t-240 -580z" />
<glyph unicode="L" d="M111 1019q0 380 270 650q271 271 651 271q381 0 651 -270q271 -271 271 -651q0 -381 -270 -651q-271 -271 -652 -271t-651 270t-270 652zM213 1019q0 -277 162 -490q163 -217 409 -291l248 781v819q-339 0 -579 -240t-240 -579z" />
<glyph unicode="M" d="M111 1019q0 380 270 650q271 271 651 271q381 0 651 -270q271 -271 271 -651q0 -381 -270 -651q-271 -271 -652 -271t-651 270t-270 652zM213 1019q0 -202 90 -373q89 -173 244 -287l485 660v819q-339 0 -579 -240t-240 -579z" />
<glyph unicode="N" d="M111 1019q0 381 270 650q271 271 651 271q381 0 651 -270q271 -271 271 -651q0 -381 -270 -651q-271 -271 -652 -271t-651 270q-270 268 -270 652zM213 1019q0 -272 160 -486l659 486v819q-339 0 -579 -240t-240 -579z" />
<glyph unicode="O" d="M111 1019q0 381 270 650q271 271 651 271q381 0 651 -270q271 -271 271 -651q0 -381 -270 -651q-271 -271 -652 -271t-651 270q-270 268 -270 652zM213 1019q0 -138 42 -258l777 258v819q-339 0 -579 -240t-240 -579z" />
<glyph unicode="P" d="M111 1019q0 381 270 650q271 271 651 271q381 0 651 -270q271 -271 271 -651q0 -381 -270 -651q-271 -271 -652 -271t-651 270q-270 268 -270 652zM213 1018l819 1v819q-339 0 -579 -240t-240 -580z" />
<glyph unicode="Q" d="M111 1019q0 381 270 650q271 271 651 271q381 0 651 -270q271 -271 271 -651q0 -381 -270 -651q-271 -271 -652 -271t-651 270q-270 268 -270 652zM251 1267l781 -248v819q-276 0 -489 -162q-216 -163 -292 -409z" />
<glyph unicode="R" d="M111 1019q0 381 270 650q271 271 651 271q381 0 651 -270q271 -271 271 -651q0 -381 -270 -651q-271 -271 -652 -271t-651 270q-270 268 -270 652zM373 1504l659 -485v819q-202 0 -373 -90q-172 -91 -286 -244z" />
<glyph unicode="S" d="M111 1019q0 381 270 650q271 271 651 271q381 0 651 -270q271 -271 271 -651q0 -381 -270 -651q-271 -271 -652 -271t-651 270q-270 268 -270 652zM551 1681l481 -662v819q-267 0 -481 -157z" />
<glyph unicode="T" d="M111 1019q0 381 270 650q271 271 651 271q381 0 651 -270q271 -271 271 -651q0 -381 -270 -651q-271 -271 -652 -271t-651 270q-270 268 -270 652zM778 1796l254 -777v819q-131 0 -254 -42z" />
<glyph unicode="U" d="M111 1019q0 381 270 650q271 271 651 271q381 0 651 -270q271 -271 271 -651q0 -381 -270 -651q-271 -271 -652 -271t-651 270q-270 268 -270 652z" />
<glyph unicode="X" d="M111 1019q0 381 270 650q271 271 651 271q381 0 651 -270q271 -271 271 -651q0 -381 -270 -651q-271 -271 -652 -271t-651 270q-270 268 -270 652zM214 1020q0 -288 214 -540l535 538l-543 547q-97 -107 -152 -247q-54 -146 -54 -298zM490 407q109 -98 247 -151 q140 -55 295 -55q294 0 540 208l-538 541zM491 1631l542 -542l540 545l7 -6q-105 92 -247 150q-145 58 -301 60h-6q-159 0 -295 -54q-126 -48 -240 -153zM1104 1020l542 -544q200 230 206 544v6q0 149 -53 288q-61 151 -147 249z" />
<glyph unicode="^" d="M111 1019q0 380 270 650q271 271 651 271q381 0 651 -270q271 -271 271 -651q0 -381 -270 -651q-271 -271 -652 -271t-651 270t-270 652zM213 1019q0 -272 160 -486l659 486v819q-339 0 -579 -240t-240 -579z" />
<glyph unicode="`" d="M111 1019q0 380 270 650q271 271 651 271q381 0 651 -270q271 -271 271 -651q0 -381 -270 -651q-271 -271 -652 -271t-651 270t-270 652zM213 1018q0 -339 240 -579t579 -240t579 240q241 241 241 579t-241 579t-579 241q-339 0 -579 -240t-240 -580z" />
<glyph unicode="a" d="M111 1019q0 382 270 650q271 271 651 271q381 0 651 -270q271 -271 271 -651q0 -381 -270 -651q-271 -271 -652 -271t-651 270q-270 265 -270 652zM213 1018q0 -339 240 -579t579 -240t579 240q241 244 241 579q0 333 -241 579q-241 241 -579 241q-339 0 -579 -240 t-240 -580z" />
<glyph unicode="b" d="M111 1019q0 382 270 650q271 271 651 271q381 0 651 -270q271 -271 271 -651q0 -381 -270 -651q-271 -271 -652 -271t-651 270q-270 265 -270 652zM213 1019q0 -339 240 -579q241 -241 579 -241q339 0 579 240q241 244 241 580q0 269 -159 481q-158 213 -403 297 l-258 -778v819q-339 0 -579 -240t-240 -579z" />
<glyph unicode="c" d="M111 1019q0 382 270 650q271 271 651 271q381 0 651 -270q271 -271 271 -651q0 -381 -270 -651q-271 -271 -652 -271t-651 270q-270 265 -270 652zM213 1019q0 -339 240 -579q241 -241 579 -241q339 0 579 240q241 244 241 580q0 195 -90 372q-92 172 -244 287l-486 -659 v819q-339 0 -579 -240t-240 -579z" />
<glyph unicode="d" d="M111 1019q0 380 270 650q271 271 651 271q381 0 651 -270q271 -271 271 -651q0 -381 -270 -651q-271 -271 -652 -271t-651 270t-270 652zM213 1019q0 -339 240 -579q241 -241 579 -241q339 0 579 240q241 241 241 580q0 269 -160 485l-660 -485v819q-339 0 -579 -240 t-240 -579z" />
<glyph unicode="e" d="M111 1019q0 382 270 650q271 271 651 271q381 0 651 -270q271 -271 271 -651q0 -381 -270 -651q-271 -271 -652 -271t-651 270q-270 265 -270 652zM213 1019q0 -339 240 -579q241 -241 579 -241q339 0 579 240q241 244 241 580q0 110 -39 248l-781 -248v819 q-339 0 -579 -240t-240 -579z" />
<glyph unicode="f" d="M111 1019q0 382 270 650q271 271 651 271q381 0 651 -270q271 -271 271 -651q0 -381 -270 -651q-271 -271 -652 -271t-651 270q-270 265 -270 652zM213 1018q0 -339 240 -579t579 -240t579 240q241 244 241 579l-820 1v819q-339 0 -579 -240t-240 -580z" />
<glyph unicode="g" d="M111 1019q0 381 270 650q271 271 651 271q381 0 651 -270q271 -271 271 -651q0 -381 -270 -651q-271 -271 -652 -271t-651 270q-270 267 -270 652zM213 1019q0 -339 240 -579q241 -241 579 -241q268 0 482 158q208 156 296 404l-778 258v819q-339 0 -579 -240t-240 -579z " />
<glyph unicode="h" d="M111 1019q0 382 270 650q271 271 651 271q381 0 651 -270q271 -271 271 -651q0 -381 -270 -651q-271 -271 -652 -271t-651 270q-270 265 -270 652zM213 1019q0 -339 240 -579q241 -241 579 -241q202 0 373 90q172 89 287 244l-660 486v819q-339 0 -579 -240t-240 -579z " />
<glyph unicode="i" d="M111 1019q0 382 270 650q271 271 651 271q381 0 651 -270q271 -271 271 -651q0 -381 -270 -651q-271 -271 -652 -271t-651 270q-270 265 -270 652zM213 1019q0 -339 240 -579q241 -241 579 -241q261 0 482 157l-482 663v819q-339 0 -579 -240t-240 -579z" />
<glyph unicode="j" d="M111 1019q0 381 270 650q271 271 651 271q381 0 651 -270q271 -271 271 -651q0 -381 -270 -651q-271 -271 -652 -271t-651 270q-270 267 -270 652zM213 1019q0 -339 240 -579q241 -241 579 -241q123 0 253 41l-253 779v819q-339 0 -579 -240t-240 -579z" />
<glyph unicode="k" d="M111 1019q0 382 270 650q271 271 651 271q381 0 651 -270q271 -271 271 -651q0 -381 -270 -651q-271 -271 -652 -271t-651 270q-270 265 -270 652zM213 1018q0 -339 240 -579t579 -240v820v819q-339 0 -579 -240t-240 -580z" />
<glyph unicode="l" d="M111 1019q0 381 270 650q271 271 651 271q381 0 651 -270q271 -271 271 -651q0 -381 -270 -651q-271 -271 -652 -271t-651 270q-270 268 -270 652zM213 1019q0 -277 162 -490q163 -218 409 -291l248 781v819q-339 0 -579 -240t-240 -579z" />
<glyph unicode="m" d="M111 1019q0 380 270 650q271 271 651 271q381 0 651 -270q271 -271 271 -651q0 -381 -270 -651q-271 -271 -652 -271t-651 270t-270 652zM213 1019q0 -202 90 -373q88 -173 244 -287l485 660v819q-339 0 -579 -240t-240 -579z" />
<glyph unicode="n" d="M111 1019q0 381 270 650q271 271 651 271q381 0 651 -270q271 -271 271 -651q0 -381 -270 -651q-271 -271 -652 -271t-651 270q-270 267 -270 652zM213 1019q0 -272 160 -486l659 486v819q-339 0 -579 -240t-240 -579z" />
<glyph unicode="o" d="M111 1019q0 381 270 650q271 271 651 271q381 0 651 -270q271 -271 271 -651q0 -381 -270 -651q-271 -271 -652 -271t-651 270q-270 267 -270 652zM213 1019q0 -138 42 -258l777 258v819q-339 0 -579 -240t-240 -579z" />
<glyph unicode="p" d="M111 1019q0 381 270 650q271 271 651 271q381 0 651 -270q271 -271 271 -651q0 -381 -270 -651q-271 -271 -652 -271t-651 270q-270 267 -270 652zM213 1018l819 1v819q-339 0 -579 -240t-240 -580z" />
<glyph unicode="q" d="M111 1019q0 381 270 650q271 271 651 271q381 0 651 -270q271 -271 271 -651q0 -381 -270 -651q-271 -271 -652 -271t-651 270q-270 267 -270 652zM251 1267l781 -248v819q-276 0 -489 -162q-217 -163 -292 -409z" />
<glyph unicode="r" d="M111 1019q0 381 270 650q271 271 651 271q381 0 651 -270q271 -271 271 -651q0 -381 -270 -651q-271 -271 -652 -271t-651 270q-270 267 -270 652zM373 1504l659 -485v819q-202 0 -373 -90q-172 -91 -286 -244z" />
<glyph unicode="s" d="M111 1019q0 381 270 650q271 271 651 271q381 0 651 -270q271 -271 271 -651q0 -381 -270 -651q-271 -271 -652 -271t-651 270q-270 267 -270 652zM551 1681l481 -662v819q-267 0 -481 -157z" />
<glyph unicode="t" d="M111 1019q0 381 270 650q271 271 651 271q381 0 651 -270q271 -271 271 -651q0 -381 -270 -651q-271 -271 -652 -271t-651 270q-270 267 -270 652zM778 1796l254 -777v819q-131 0 -254 -42z" />
<glyph unicode="u" d="M111 1019q0 381 270 650q271 271 651 271q381 0 651 -270q271 -271 271 -651q0 -381 -270 -651q-271 -271 -652 -271t-651 270q-270 267 -270 652z" />
<glyph unicode="x" d="M111 1019q0 381 270 650q271 271 651 271q381 0 651 -270q271 -271 271 -651q0 -381 -270 -651q-271 -271 -652 -271t-651 270q-270 268 -270 652zM420 1565l543 -547l-540 -538q7 -9 14.5 -18t15.5 -18q15 -19 37 -37l544 543l544 -547q15 13 32 34q15 18 36 39 l-542 544l548 543q-10 10 -38 34q-14 12 -40 38l-541 -546l-543 542l-36 -32q-19 -16 -34 -34z" />
<glyph unicode="~" d="M111 1019q0 381 270 650q271 271 651 271q381 0 651 -270q271 -271 271 -651q0 -381 -270 -651q-271 -271 -652 -271t-651 270q-270 268 -270 652zM213 1019q0 -339 240 -579q241 -241 579 -241q339 0 579 240q241 242 241 580q0 269 -159 481q-156 212 -403 297 l-258 -778v819q-339 0 -579 -240t-240 -579z" />
<glyph unicode="&#xa9;" horiz-adv-x="2117" d="M47 364q0 43 16 73q15 32 45 49q32 16 65 16q41 0 68 -22q27 -20 38 -58l-35 -9q-11 29 -27 43q-22 13 -45 13q-31 0 -52 -15q-22 -14 -29 -39q-8 -22 -8 -51q0 -35 10 -59q10 -27 31 -38q22 -13 46 -13q30 0 51 18q22 17 28 50l36 -9q-10 -43 -40 -68q-31 -23 -71 -23 q-44 0 -71 17q-28 18 -42 52q-14 35 -14 73zM207 1542v274h101q27 0 41 -3q18 -3 34 -13q13 -9 21 -27q8 -15 8 -37q0 -36 -21 -60q-23 -24 -79 -24h-69v-110h-36zM243 1684h69q34 0 50 14q14 11 14 36q0 19 -8 30q-11 13 -23 16q-8 3 -33 3h-69v-99zM287 1270v32h29v21 q0 20 4 28q4 12 16 21q12 8 34 8q8 0 32 -4l-5 -31q-14 2 -20 2q-16 0 -22 -6t-6 -22v-17h38v-32h-38v-167h-33v167h-29zM331 301v123h33v-107q0 -23 2 -35q2 -13 13 -20q11 -8 25 -8q15 0 28 8q12 7 19 21q5 10 5 37v104h33v-199h-33v34q-21 -37 -60 -37q-16 0 -31 6 q-16 7 -22 17q-7 9 -10 25q-2 12 -2 31zM404 1203q0 54 30 80q24 22 61 22q41 0 65 -27q26 -26 26 -73q0 -38 -12 -60q-12 -23 -32 -33q-21 -12 -47 -12q-42 0 -66 26q-25 25 -25 77zM407 801q0 33 19 70q19 33 53 52q36 18 68 18q33 0 69 -18q33 -19 53 -52q18 -35 18 -70 q0 -37 -18 -70q-19 -34 -52 -52q-35 -19 -70 -19t-69 19q-34 17 -52 52q-19 34 -19 70zM434 801q0 -30 15 -57t42 -42q28 -14 56 -14q29 0 57 14q27 15 42 42t15 57q0 27 -16 56q-15 27 -42 42t-56 15q-28 0 -55 -15t-43 -42q-15 -30 -15 -56zM437 1203q0 -37 16 -53 q16 -18 42 -18q24 0 41 18q17 17 17 54q0 32 -17 51q-17 17 -41 17q-25 0 -42 -17q-16 -16 -16 -52zM458 1542v199h33v-199h-33zM458 1783v33h33v-33h-33zM473 801q0 25 9 45q10 19 27 28q17 10 40 10q24 0 41 -12q17 -13 23 -33l-27 -6q-6 12 -15 18q-11 6 -25 6 q-21 0 -33 -14q-13 -15 -13 -43q0 -29 12 -42q14 -14 33 -14q16 0 28 9q13 9 16 24l27 -6q-6 -26 -24 -39q-18 -15 -45 -15q-34 0 -53 23q-21 21 -21 61zM528 1640q0 47 26 77q25 27 67 27q40 0 66 -27q26 -26 26 -75q0 -1 -0.5 -3t-0.5 -5h-151q1 -31 19 -46q18 -17 44 -17 q18 0 34 8q12 7 21 25h1l32 -6q-9 -28 -31 -44q-24 -16 -57 -16q-43 0 -70 27q-26 27 -26 75zM543 225v199h27v-29q11 19 22 26q10 6 22 6q19 0 37 -9l-12 -31q-13 7 -25 7q-11 0 -20 -6q-9 -8 -13 -19q-5 -20 -5 -39v-105h-33zM561 1667h119q-2 19 -14 29q-17 15 -45 15 q-25 0 -41 -12q-18 -12 -19 -32zM628 1103v199h27v-29q12 20 22 26q9 6 22 6q18 0 36 -9l-12 -31q-12 7 -25 7q-10 0 -19 -6q-9 -8 -13 -19q-5 -20 -5 -39v-105h-33zM650 392v32h23v49l33 21v-70h33v-32h-33v-111q0 -14 2 -18q2 -5 5 -6q9 -3 11 -3h6.5h8.5l6 -29 q-15 -3 -26 -3q-20 0 -28 5q-10 6 -14 15q-4 12 -4 38v112h-23zM776 225v199h33v-199h-33zM776 466v33h33v-33h-33zM833 837v32q28 13 50 32q21 19 30 37h22v-274h-33v213q-11 -10 -33 -23q-21 -13 -36 -17zM846 284l33 6q3 -18 15 -26q12 -10 37 -10q22 0 35 8q11 9 11 19 q0 9 -11 16q-20 6 -35 10q-32 8 -50 16q-15 7 -22 19q-7 14 -7 27q0 14 6 25q5 11 16 19q9 7 21 10q12 4 29 4q23 0 40 -7q17 -6 25 -18q9 -13 12 -31l-33 -6q-2 12 -13 21q-8 8 -28 8q-23 0 -33 -6q-9 -6 -9 -15q0 -6 4 -10q2 -5 12 -8q-3 1 29 -7q37 -12 49 -16 q14 -6 22 -18q9 -12 9 -29q0 -18 -10 -32q-12 -16 -28 -23q-20 -8 -42 -8q-39 0 -58 15q-20 15 -26 47zM849 1641q0 32 10 55t32 36q21 12 47 12q31 0 52 -16q19 -17 26 -47l-33 -5q-5 16 -16 26q-12 9 -29 9q-25 0 -41 -16q-15 -18 -15 -54q0 -37 15 -53q17 -17 41 -17 q19 0 34 11q13 10 17 34l33 -6q-7 -35 -28 -52q-24 -20 -55 -20q-41 0 -65 27q-25 25 -25 76zM859 1103v199h33v-33q9 17 24 26q14 10 33 10q22 0 35 -10q13 -11 19 -28q22 38 61 38q29 0 45 -16q15 -17 15 -51v-135h-32v122q0 10 -3 28q-4 7 -12 14q-10 5 -20 5 q-22 0 -35 -13q-14 -14 -14 -44v-112h-32v125q0 22 -9 34q-8 10 -27 10q-16 0 -25 -7q-12 -6 -18 -21q-5 -15 -5 -41v-100h-33zM1024 845q0 41 24 67t60 26q26 0 48 -14q21 -16 33 -41q11 -29 11 -76q0 -52 -11 -83q-13 -32 -33 -47q-22 -17 -51 -17q-31 0 -51 19 q-21 20 -23 53l32 3q4 -23 15 -32q11 -10 29 -10q13 0 26 7q11 5 18 17q5 7 12 29q4 16 4 39v2.5v4.5q-10 -16 -26 -26q-18 -10 -38 -10q-33 0 -56 25q-23 24 -23 64zM1051 1542v274h33v-103q23 31 59 31q20 0 37 -9q15 -8 23 -24q6 -15 6 -44v-125h-32v122q0 23 -11 36 q-11 11 -30 11q-16 0 -28 -7q-14 -9 -18 -21q-6 -12 -6 -35v-106h-33zM1057 844q0 -26 16 -40q13 -15 40 -15q24 0 39 15t15 42q0 25 -14 43q-16 16 -39 16q-24 0 -41 -17q-16 -20 -16 -44zM1149 364q0 43 15 73q17 33 46 49q32 16 65 16q41 0 68 -22q27 -20 38 -58l-35 -9 q-11 29 -27 43q-22 13 -45 13q-31 0 -52 -15q-22 -14 -29 -39q-8 -22 -8 -51q0 -35 10 -59q8 -26 31 -38q22 -13 46 -13q30 0 51 18q20 15 28 50l36 -9q-10 -43 -40 -68q-31 -23 -72 -23q-42 0 -71 17q-29 20 -41 52q-14 35 -14 73zM1167 1155q0 15 6 26q5 11 17 19 q13 8 24 11q12 3 30 5q40 4 60 12v5v3q0 17 -9 26q-13 10 -39 10q-25 0 -34 -7q-12 -6 -16 -26l-33 7q4 18 14 33q11 13 30 19q18 7 45 7q25 0 42 -6q15 -7 23 -15q8 -10 11 -23q1 -6 1 -30v-42q0 -38 2 -58q1 -15 8 -28h-33q-8 9 -9 24q-19 -15 -37 -21q-17 -6 -36 -6 q-32 0 -50 15q-17 15 -17 40zM1200 1158q0 -13 10 -18q11 -8 30 -8t35 8q13 6 23 19q6 10 6 26v10q-24 -8 -56 -10q-24 -4 -30 -6q-8 -3 -14 -9q-4 -4 -4 -12zM1237 845q0 40 23 67q24 26 60 26q26 0 48 -14q21 -14 33 -41q11 -29 11 -76q0 -52 -11 -83t-33 -47 q-22 -17 -51 -17q-31 0 -51 19q-21 20 -23 53l32 3q4 -22 15 -32t29 -10q13 0 26 7q10 5 19 17q7 12 11 29q5 20 5 39v2.5v4.5q-12 -16 -27 -26q-18 -10 -38 -10q-33 0 -56 25q-22 23 -22 64zM1252 1594q0 14 6 26q5 11 17 19q13 8 24 11q12 3 30 5q40 4 60 12v4.5v3.5 q0 18 -9 26q-13 10 -39 10q-25 0 -34 -7q-12 -8 -16 -25l-33 5q4 19 14 34q11 13 30 19q18 7 45 7q25 0 42 -6q15 -7 23 -15q8 -10 11 -23q2 -10 2 -30v-41q0 -49 1 -59q1 -15 8 -28h-33q-8 8 -9 23q-22 -15 -36 -20q-21 -7 -37 -7q-31 0 -50 16q-17 15 -17 40zM1269 844 q0 -26 16 -40q15 -15 40 -15q24 0 39 15q16 16 16 42t-15 43q-16 16 -39 16q-24 0 -41 -17q-16 -20 -16 -44zM1285 1596q0 -12 10 -17q9 -8 30 -8q19 0 35 8q13 6 23 19q6 9 6 26v10q-22 -7 -56 -11q-22 -2 -30 -5q-10 -4 -14 -9q-4 -4 -4 -13zM1388 1028v274h32v-33 q9 16 24 27q13 9 33 9q26 0 45 -13q18 -13 29 -37q10 -25 10 -51q0 -29 -11 -54q-12 -25 -33 -38q-21 -12 -44 -12q-16 0 -30 8q-17 10 -23 21v-101h-32zM1420 1201q0 -35 16 -52q15 -17 37 -17t39 18q16 17 16 53q0 34 -16 52q-16 17 -37 17q-22 0 -38 -18q-17 -19 -17 -53 zM1433 225v274h33v-274h-33zM1449 738l32 6q5 -26 19 -39q15 -12 35 -12q25 0 41 16t16 39q0 22 -16 36q-15 15 -38 15q-6 0 -24 -4l4 33q2 -1 5 -1q18 0 37 10q17 10 17 30q0 15 -13 27q-13 11 -31 11q-20 0 -32 -11q-15 -13 -17 -34l-32 6q4 31 27 53q22 19 52 19 q20 0 40 -10q19 -9 28 -25q11 -16 11 -34q0 -16 -10 -31q-9 -14 -28 -23q24 -5 38 -23q14 -19 14 -45q0 -38 -26 -61q-25 -26 -64 -26q-34 0 -59 22t-26 56zM1476 1542v199h27v-29q10 18 21 26q10 6 23 6q18 0 36 -9l-12 -31q-12 7 -25 7q-10 0 -19 -6q-11 -9 -13 -19 q-6 -18 -6 -40v-104h-32zM1506 277q0 15 6 27q7 12 17 18q13 8 24 11q12 3 30 5q40 4 60 12v5v3q0 18 -10 26q-12 10 -38 10q-25 0 -34 -7q-12 -6 -16 -26l-33 7q4 18 14 33q11 12 30 19q18 7 46 7q24 0 41 -6q15 -7 23 -15q8 -10 11 -23q2 -10 2 -30v-41q0 -49 1 -59 q4 -20 8 -28h-33q-8 9 -9 24q-20 -15 -36 -21q-18 -6 -38 -6q-31 0 -49 15q-17 15 -17 40zM1538 280q0 -12 11 -18q11 -8 30 -8t35 8q13 6 23 19q6 10 6 26v10q-24 -8 -56 -10q-20 -3 -30 -6q-11 -4 -13 -9q-6 -5 -6 -12zM1582 1709v32h24v49l32 20v-69h33v-32h-33v-111 q0 -14 2 -18q1 -4 6 -7q4 -2 11 -2h6h8l6 -29q-18 -4 -25 -4q-19 0 -28 6q-10 5 -14 15q-4 8 -4 38v112h-24zM1588 1162l33 6q1 -18 15 -26q12 -10 36 -10q23 0 35 8q12 9 12 19t-12 16q-13 4 -34 10q-32 8 -50 16q-14 5 -22 19q-7 11 -7 27q0 14 6 25q5 11 16 19q9 7 21 10 q12 4 28 4q24 0 41 -7t25 -18q9 -13 12 -31l-33 -6q-2 12 -13 21q-10 8 -29 8q-23 0 -32 -6t-9 -15q0 -6 3 -10q5 -6 13 -8q-3 1 29 -7q37 -12 49 -16q14 -7 22 -18q9 -12 9 -29q0 -16 -10 -32q-12 -16 -28 -23q-21 -8 -42 -8q-39 0 -58 15q-20 15 -26 47zM1694 1601l32 6 q4 -18 16 -26q12 -10 36 -10q23 0 36 8q11 9 11 19q0 9 -11 16q-18 6 -35 9q-35 9 -50 17q-15 7 -22 19q-7 14 -7 27q0 14 6 25q7 12 16 19t21 10q18 4 29 4q23 0 40 -7q16 -6 25 -18q9 -13 12 -31l-33 -7q-2 13 -13 22q-10 8 -29 8q-23 0 -32 -6t-9 -15q0 -6 3 -10 q3 -5 13 -8q-3 1 29 -7q38 -12 48 -16q15 -7 23 -18q9 -12 9 -29q0 -16 -10 -32q-12 -16 -28 -23q-24 -9 -42 -9q-38 0 -58 16q-21 15 -26 47zM1730 225v199h27v-29q10 18 21 26q10 6 23 6q18 0 36 -9l-12 -31q-12 7 -25 7q-12 0 -19 -6q-11 -9 -13 -19q-6 -18 -6 -39v-105 h-32zM1855 225v274h33v-152l78 77h46l-76 -74l81 -125h-38l-67 102l-24 -24v-78h-33z" />
<glyph unicode="&#x2000;" horiz-adv-x="970" />
<glyph unicode="&#x2001;" horiz-adv-x="1940" />
<glyph unicode="&#x2002;" horiz-adv-x="970" />
<glyph unicode="&#x2003;" horiz-adv-x="1940" />
<glyph unicode="&#x2004;" horiz-adv-x="646" />
<glyph unicode="&#x2005;" horiz-adv-x="485" />
<glyph unicode="&#x2006;" horiz-adv-x="323" />
<glyph unicode="&#x2007;" horiz-adv-x="323" />
<glyph unicode="&#x2008;" horiz-adv-x="242" />
<glyph unicode="&#x2009;" horiz-adv-x="388" />
<glyph unicode="&#x200a;" horiz-adv-x="107" />
<glyph unicode="&#x202f;" horiz-adv-x="388" />
<glyph unicode="&#x205f;" horiz-adv-x="485" />
</font>
</defs>
</svg>
